<?xml version="1.0" encoding="UTF-8"?>
<!--Generator: Apple Native CoreSVG 341-->
<!DOCTYPE svg
PUBLIC "-//W3C//DTD SVG 1.1//EN"
       "http://www.w3.org/Graphics/SVG/1.1/DTD/svg11.dtd">
<svg version="1.1" xmlns="http://www.w3.org/2000/svg" xmlns:xlink="http://www.w3.org/1999/xlink" viewBox="0 0 3300 2200">
 <!--glyph: "", point size: 100.0, font version: "21.0d4e1", template writer version: "138.0.0"-->
 <style>.defaults {-sfsymbols-variable-value-mode:color;-sfsymbols-draw-reverses-motion-groups:true}

.monochrome-0 {-sfsymbols-motion-group:1;-sfsymbols-layer-tags:-5990c7949d5fe68b -78c9ed5ba61a8dc menubar.dock.rectangle}
.monochrome-1 {-sfsymbols-motion-group:1;-sfsymbols-layer-tags:-5990c7949d5fe68b -78c9ed5ba61a8dc menubar.dock.rectangle}
.monochrome-2 {opacity:0.0;-sfsymbols-clear-behind:true;-sfsymbols-motion-group:0;-sfsymbols-layer-tags:-78c9ed5ba61a8dc _badge checkmark}
.monochrome-3 {-sfsymbols-motion-group:0;-sfsymbols-always-pulses:true;-sfsymbols-layer-tags:-78c9ed5ba61a8dc _badge checkmark}
.monochrome-4 {opacity:0.0;-sfsymbols-clear-behind:true;-sfsymbols-motion-group:0;-sfsymbols-always-pulses:true;-sfsymbols-layer-tags:-78c9ed5ba61a8dc _badge checkmark}

.multicolor-0:tintColor {-sfsymbols-motion-group:1;-sfsymbols-layer-tags:-5990c7949d5fe68b -78c9ed5ba61a8dc menubar.dock.rectangle}
.multicolor-1:tintColor {-sfsymbols-motion-group:1;-sfsymbols-layer-tags:-5990c7949d5fe68b -78c9ed5ba61a8dc menubar.dock.rectangle}
.multicolor-2:tintColor {opacity:0.0;-sfsymbols-clear-behind:true;-sfsymbols-motion-group:0;-sfsymbols-layer-tags:-78c9ed5ba61a8dc _badge checkmark}
.multicolor-3:systemBlueColor {-sfsymbols-motion-group:0;-sfsymbols-always-pulses:true;-sfsymbols-layer-tags:-78c9ed5ba61a8dc _badge checkmark}
.multicolor-4:white {-sfsymbols-motion-group:0;-sfsymbols-always-pulses:true;-sfsymbols-layer-tags:-78c9ed5ba61a8dc _badge checkmark}

.hierarchical-0:secondary {-sfsymbols-motion-group:1;-sfsymbols-layer-tags:-5990c7949d5fe68b -78c9ed5ba61a8dc menubar.dock.rectangle}
.hierarchical-1:secondary {-sfsymbols-motion-group:1;-sfsymbols-layer-tags:-5990c7949d5fe68b -78c9ed5ba61a8dc menubar.dock.rectangle}
.hierarchical-2:primary {opacity:0.0;-sfsymbols-clear-behind:true;-sfsymbols-motion-group:0;-sfsymbols-layer-tags:-78c9ed5ba61a8dc _badge checkmark}
.hierarchical-3:primary {-sfsymbols-motion-group:0;-sfsymbols-always-pulses:true;-sfsymbols-layer-tags:-78c9ed5ba61a8dc _badge checkmark}
.hierarchical-4:primary {opacity:0.0;-sfsymbols-clear-behind:true;-sfsymbols-motion-group:0;-sfsymbols-always-pulses:true;-sfsymbols-layer-tags:-78c9ed5ba61a8dc _badge checkmark}

.SFSymbolsPreviewWireframe {fill:none;opacity:1.0;stroke:black;stroke-width:0.5}
</style>
 <g id="Notes">
  <rect height="2200" id="artboard" style="fill:white;opacity:1" width="3300" x="0" y="0"/>
  <line style="fill:none;stroke:black;opacity:1;stroke-width:0.5;" x1="263" x2="3036" y1="292" y2="292"/>
  <text style="stroke:none;fill:black;font-family:sans-serif;font-size:13;font-weight:bold;" transform="matrix(1 0 0 1 263 322)">Weight/Scale Variations</text>
  <text style="stroke:none;fill:black;font-family:sans-serif;font-size:13;text-anchor:middle;" transform="matrix(1 0 0 1 559.711 322)">Ultralight</text>
  <text style="stroke:none;fill:black;font-family:sans-serif;font-size:13;text-anchor:middle;" transform="matrix(1 0 0 1 856.422 322)">Thin</text>
  <text style="stroke:none;fill:black;font-family:sans-serif;font-size:13;text-anchor:middle;" transform="matrix(1 0 0 1 1153.13 322)">Light</text>
  <text style="stroke:none;fill:black;font-family:sans-serif;font-size:13;text-anchor:middle;" transform="matrix(1 0 0 1 1449.84 322)">Regular</text>
  <text style="stroke:none;fill:black;font-family:sans-serif;font-size:13;text-anchor:middle;" transform="matrix(1 0 0 1 1746.56 322)">Medium</text>
  <text style="stroke:none;fill:black;font-family:sans-serif;font-size:13;text-anchor:middle;" transform="matrix(1 0 0 1 2043.27 322)">Semibold</text>
  <text style="stroke:none;fill:black;font-family:sans-serif;font-size:13;text-anchor:middle;" transform="matrix(1 0 0 1 2339.98 322)">Bold</text>
  <text style="stroke:none;fill:black;font-family:sans-serif;font-size:13;text-anchor:middle;" transform="matrix(1 0 0 1 2636.69 322)">Heavy</text>
  <text style="stroke:none;fill:black;font-family:sans-serif;font-size:13;text-anchor:middle;" transform="matrix(1 0 0 1 2933.4 322)">Black</text>
  <line style="fill:none;stroke:black;opacity:1;stroke-width:0.5;" x1="263" x2="3036" y1="1903" y2="1903"/>
  <g transform="matrix(0.2 0 0 0.2 263 1933)">
   <path d="m46.2402 4.15039c21.7773 0 39.4531-17.627 39.4531-39.4043s-17.6758-39.4043-39.4531-39.4043c-21.7285 0-39.4043 17.627-39.4043 39.4043s17.6758 39.4043 39.4043 39.4043Zm0-7.42188c-17.6758 0-31.9336-14.3066-31.9336-31.9824s14.2578-31.9824 31.9336-31.9824 31.9824 14.3066 31.9824 31.9824-14.3066 31.9824-31.9824 31.9824Zm3.61328-17.7734v-28.4668c0-2.24609-1.46484-3.75977-3.71094-3.75977-2.14844 0-3.61328 1.51367-3.61328 3.75977v28.4668c0 2.19727 1.46484 3.71094 3.61328 3.71094 2.24609 0 3.71094-1.51367 3.71094-3.71094Zm-17.8223-10.5957h28.418c2.19727 0 3.71094-1.46484 3.71094-3.61328 0-2.19727-1.51367-3.71094-3.71094-3.71094h-28.418c-2.24609 0-3.75977 1.51367-3.75977 3.71094 0 2.14844 1.51367 3.61328 3.75977 3.61328Z"/>
  </g>
  <g transform="matrix(0.2 0 0 0.2 281.506 1933)">
   <path d="m58.5449 14.5508c27.4902 0 49.8047-22.3145 49.8047-49.8047s-22.3145-49.8047-49.8047-49.8047-49.8047 22.3145-49.8047 49.8047 22.3145 49.8047 49.8047 49.8047Zm0-8.30078c-22.9492 0-41.5039-18.5547-41.5039-41.5039s18.5547-41.5039 41.5039-41.5039 41.5039 18.5547 41.5039 41.5039-18.5547 41.5039-41.5039 41.5039Zm4.05273-23.0957v-36.9141c0-2.49023-1.70898-4.19922-4.15039-4.19922-2.39258 0-4.05273 1.70898-4.05273 4.19922v36.9141c0 2.44141 1.66016 4.15039 4.05273 4.15039 2.44141 0 4.15039-1.66016 4.15039-4.15039Zm-22.5586-14.4043h36.9629c2.44141 0 4.15039-1.61133 4.15039-4.00391 0-2.44141-1.70898-4.15039-4.15039-4.15039h-36.9629c-2.49023 0-4.15039 1.70898-4.15039 4.15039 0 2.39258 1.66016 4.00391 4.15039 4.00391Z"/>
  </g>
  <g transform="matrix(0.2 0 0 0.2 304.924 1933)">
   <path d="m74.8535 28.3203c35.1074 0 63.623-28.4668 63.623-63.5742s-28.5156-63.623-63.623-63.623-63.5742 28.5156-63.5742 63.623 28.4668 63.5742 63.5742 63.5742Zm0-9.08203c-30.127 0-54.4922-24.3652-54.4922-54.4922s24.3652-54.4922 54.4922-54.4922 54.4922 24.3652 54.4922 54.4922-24.3652 54.4922-54.4922 54.4922Zm4.44336-30.3223v-48.4863c0-2.73438-1.85547-4.63867-4.54102-4.63867-2.58789 0-4.44336 1.9043-4.44336 4.63867v48.4863c0 2.68555 1.85547 4.58984 4.44336 4.58984 2.68555 0 4.54102-1.85547 4.54102-4.58984Zm-28.7109-19.7754h48.4863c2.68555 0 4.58984-1.80664 4.58984-4.39453 0-2.73438-1.85547-4.58984-4.58984-4.58984h-48.4863c-2.73438 0-4.58984 1.85547-4.58984 4.58984 0 2.58789 1.85547 4.39453 4.58984 4.39453Z"/>
  </g>
  <text style="stroke:none;fill:black;font-family:sans-serif;font-size:13;font-weight:bold;" transform="matrix(1 0 0 1 263 1953)">Design Variations</text>
  <text style="stroke:none;fill:black;font-family:sans-serif;font-size:13;" transform="matrix(1 0 0 1 263 1971)">Symbols are supported in up to nine weights and three scales.</text>
  <text style="stroke:none;fill:black;font-family:sans-serif;font-size:13;" transform="matrix(1 0 0 1 263 1989)">For optimal layout with text and other symbols, vertically align</text>
  <text style="stroke:none;fill:black;font-family:sans-serif;font-size:13;" transform="matrix(1 0 0 1 263 2007)">symbols with the adjacent text.</text>
  <line style="fill:none;stroke:#00AEEF;stroke-width:0.5;opacity:1.0;" x1="776" x2="776" y1="1919" y2="1933"/>
  <g transform="matrix(0.2 0 0 0.2 776 1933)">
   <path d="m16.5527 0.78125c2.58789 0 3.85742-0.976562 4.78516-3.71094l20.5566-57.5195h0.244141l20.6055 57.5195c0.927734 2.73438 2.19727 3.71094 4.73633 3.71094 2.58789 0 4.24805-1.5625 4.24805-4.00391 0-0.830078-0.146484-1.61133-0.537109-2.63672l-22.9004-60.9863c-1.12305-2.97852-3.125-4.49219-6.25-4.49219-3.02734 0-5.07812 1.46484-6.15234 4.44336l-22.9004 61.084c-0.390625 1.02539-0.537109 1.80664-0.537109 2.63672 0 2.44141 1.5625 3.95508 4.10156 3.95508Zm10.2051-20.9473h30.6641c2.00195 0 3.66211-1.66016 3.66211-3.66211 0-2.05078-1.66016-3.66211-3.66211-3.66211h-30.6641c-2.00195 0-3.66211 1.61133-3.66211 3.66211 0 2.00195 1.66016 3.66211 3.66211 3.66211Z"/>
  </g>
  <line style="fill:none;stroke:#00AEEF;stroke-width:0.5;opacity:1.0;" x1="792.836" x2="792.836" y1="1919" y2="1933"/>
  <text style="stroke:none;fill:black;font-family:sans-serif;font-size:13;font-weight:bold;" transform="matrix(1 0 0 1 776 1953)">Margins</text>
  <text style="stroke:none;fill:black;font-family:sans-serif;font-size:13;" transform="matrix(1 0 0 1 776 1971)">Leading and trailing margins on the left and right side of each symbol</text>
  <text style="stroke:none;fill:black;font-family:sans-serif;font-size:13;" transform="matrix(1 0 0 1 776 1989)">can be adjusted by modifying the x-location of the margin guidelines.</text>
  <text style="stroke:none;fill:black;font-family:sans-serif;font-size:13;" transform="matrix(1 0 0 1 776 2007)">Modifications are automatically applied proportionally to all</text>
  <text style="stroke:none;fill:black;font-family:sans-serif;font-size:13;" transform="matrix(1 0 0 1 776 2025)">scales and weights.</text>
  <g transform="matrix(0.2 0 0 0.2 1289 1933)">
   <path d="m14.209 13.1348 7.86133 7.86133c4.29688 4.39453 9.32617 4.10156 13.8672-1.02539l60.6934-68.2129-4.88281-4.88281-60.2539 67.6758c-1.80664 1.95312-3.4668 2.44141-5.81055 0.0976562l-5.17578-5.12695c-2.29492-2.29492-1.80664-3.95508 0.195312-5.81055l67.4805-62.1582-4.88281-4.83398-68.0664 62.5977c-4.98047 4.58984-5.32227 9.47266-1.02539 13.8184Zm44.873-97.4609c-2.05078 2.00195-2.24609 4.88281-1.07422 6.78711 1.12305 1.80664 3.4668 3.02734 6.5918 2.24609 5.85938-1.66016 12.5977-2.39258 18.8965 0.927734l-2.68555 7.12891c-1.61133 4.00391-0.732422 6.88477 1.70898 9.42383l10.2539 10.3027c2.34375 2.39258 4.54102 2.44141 7.08008 1.95312l4.44336-0.732422 2.58789 2.53906-0.195312 2.24609c-0.0976562 2.29492 0.537109 4.29688 2.7832 6.49414l3.36914 3.32031c2.29492 2.29492 5.51758 2.49023 7.8125 0.195312l12.9883-13.0371c2.29492-2.34375 2.14844-5.37109-0.195312-7.66602l-3.41797-3.41797c-2.19727-2.19727-4.05273-3.02734-6.34766-2.88086l-2.34375 0.244141-2.44141-2.44141 1.02539-4.6875c0.634766-2.73438-0.244141-4.98047-2.88086-7.61719l-11.2793-11.1816c-12.9395-12.8418-35.5957-11.0352-46.6797-0.146484Zm7.08008 2.05078c8.78906-6.39648 25.9766-5.66406 33.6914 1.95312l12.3047 12.207c1.02539 1.02539 1.2207 1.80664 0.927734 3.32031l-1.46484 6.64062 6.73828 6.68945 4.39453-0.244141c1.12305-0.0488281 1.51367 0.0488281 2.34375 0.878906l2.53906 2.49023-10.8398 10.8398-2.49023-2.49023c-0.830078-0.878906-0.976562-1.2207-0.927734-2.39258l0.292969-4.3457-6.68945-6.73828-6.83594 1.17188c-1.41602 0.292969-2.05078 0.195312-3.17383-0.878906l-8.93555-8.88672c-1.07422-1.02539-1.17188-1.70898-0.488281-3.36914l4.58984-11.4746c-6.10352-6.34766-17.041-7.51953-25.5859-4.58984-0.683594 0.244141-0.927734-0.390625-0.390625-0.78125Z"/>
  </g>
  <text style="stroke:none;fill:black;font-family:sans-serif;font-size:13;font-weight:bold;" transform="matrix(1 0 0 1 1289 1953)">Exporting</text>
  <text style="stroke:none;fill:black;font-family:sans-serif;font-size:13;" transform="matrix(1 0 0 1 1289 1971)">Symbols should be outlined when exporting to ensure the</text>
  <text style="stroke:none;fill:black;font-family:sans-serif;font-size:13;" transform="matrix(1 0 0 1 1289 1989)">design is preserved when submitting to Xcode.</text>
  <text id="template-version" style="stroke:none;fill:black;font-family:sans-serif;font-size:13;text-anchor:end;" transform="matrix(1 0 0 1 3036 1933)">Template v.7.0</text>
  <text style="stroke:none;fill:black;font-family:sans-serif;font-size:13;text-anchor:end;" transform="matrix(1 0 0 1 3036 1951)">Requires Xcode 17 or greater</text>
  <text id="descriptive-name" style="stroke:none;fill:black;font-family:sans-serif;font-size:13;text-anchor:end;" transform="matrix(1 0 0 1 3036 1969)">Generated from </text>
  <text style="stroke:none;fill:black;font-family:sans-serif;font-size:13;text-anchor:end;" transform="matrix(1 0 0 1 3036 1987)">Typeset at 100.0 points</text>
  <text style="stroke:none;fill:black;font-family:sans-serif;font-size:13;" transform="matrix(1 0 0 1 263 726)">Small</text>
  <text style="stroke:none;fill:black;font-family:sans-serif;font-size:13;" transform="matrix(1 0 0 1 263 1156)">Medium</text>
  <text style="stroke:none;fill:black;font-family:sans-serif;font-size:13;" transform="matrix(1 0 0 1 263 1586)">Large</text>
 </g>
 <g id="Guides">
  <g id="H-reference" style="fill:#27AAE1;stroke:none;" transform="matrix(1 0 0 1 339 696)">
   <path d="M0.993654 0L3.63775 0L29.3281-67.1323L30.0303-67.1323L30.0303-70.459L28.1226-70.459ZM11.6885-24.4799L46.9815-24.4799L46.2315-26.7285L12.4385-26.7285ZM55.1196 0L57.7637 0L30.6382-70.459L29.4326-70.459L29.4326-67.1323Z"/>
  </g>
  <line id="Baseline-S" style="fill:none;stroke:#27AAE1;opacity:1;stroke-width:0.5;" x1="263" x2="3036" y1="696" y2="696"/>
  <line id="Capline-S" style="fill:none;stroke:#27AAE1;opacity:1;stroke-width:0.5;" x1="263" x2="3036" y1="625.541" y2="625.541"/>
  <g id="H-reference" style="fill:#27AAE1;stroke:none;" transform="matrix(1 0 0 1 339 1126)">
   <path d="M0.993654 0L3.63775 0L29.3281-67.1323L30.0303-67.1323L30.0303-70.459L28.1226-70.459ZM11.6885-24.4799L46.9815-24.4799L46.2315-26.7285L12.4385-26.7285ZM55.1196 0L57.7637 0L30.6382-70.459L29.4326-70.459L29.4326-67.1323Z"/>
  </g>
  <line id="Baseline-M" style="fill:none;stroke:#27AAE1;opacity:1;stroke-width:0.5;" x1="263" x2="3036" y1="1126" y2="1126"/>
  <line id="Capline-M" style="fill:none;stroke:#27AAE1;opacity:1;stroke-width:0.5;" x1="263" x2="3036" y1="1055.54" y2="1055.54"/>
  <g id="H-reference" style="fill:#27AAE1;stroke:none;" transform="matrix(1 0 0 1 339 1556)">
   <path d="M0.993654 0L3.63775 0L29.3281-67.1323L30.0303-67.1323L30.0303-70.459L28.1226-70.459ZM11.6885-24.4799L46.9815-24.4799L46.2315-26.7285L12.4385-26.7285ZM55.1196 0L57.7637 0L30.6382-70.459L29.4326-70.459L29.4326-67.1323Z"/>
  </g>
  <line id="Baseline-L" style="fill:none;stroke:#27AAE1;opacity:1;stroke-width:0.5;" x1="263" x2="3036" y1="1556" y2="1556"/>
  <line id="Capline-L" style="fill:none;stroke:#27AAE1;opacity:1;stroke-width:0.5;" x1="263" x2="3036" y1="1485.54" y2="1485.54"/>
  <line id="right-margin-Black-S" style="fill:none;stroke:#FF3B30;stroke-width:0.5;opacity:1.0;" x1="2989.45" x2="2989.45" y1="600.785" y2="720.121"/>
  <line id="left-margin-Black-S" style="fill:none;stroke:#00AEEF;stroke-width:0.5;opacity:1.0;" x1="2877.35" x2="2877.35" y1="600.785" y2="720.121"/>
  <line id="right-margin-Regular-S" style="fill:none;stroke:#FF3B30;stroke-width:0.5;opacity:1.0;" x1="1504.9" x2="1504.9" y1="600.785" y2="720.121"/>
  <line id="left-margin-Regular-S" style="fill:none;stroke:#00AEEF;stroke-width:0.5;opacity:1.0;" x1="1394.79" x2="1394.79" y1="600.785" y2="720.121"/>
  <line id="right-margin-Ultralight-S" style="fill:none;stroke:#FF3B30;stroke-width:0.5;opacity:1.0;" x1="613.72" x2="613.72" y1="600.785" y2="720.121"/>
  <line id="left-margin-Ultralight-S" style="fill:none;stroke:#00AEEF;stroke-width:0.5;opacity:1.0;" x1="505.702" x2="505.702" y1="600.785" y2="720.121"/>
 </g>
 <g id="Symbols">
  <g id="Black-S" transform="matrix(1 0 0 1 2877.35 696)">
   <path class="monochrome-0 multicolor-0:tintColor hierarchical-0:secondary SFSymbolsPreviewWireframe" d="M15.625-53.5156L15.625-44.2383L96.4844-44.2383L96.4844-53.5156ZM27.9297 2.92969L84.1797 2.92969C95.3613 2.92969 102.344-4.05273 102.344-15.2344L102.344-55.1758C102.344-66.3574 95.3613-73.3398 84.1797-73.3398L27.9297-73.3398C16.748-73.3398 9.76562-66.3574 9.76562-55.1758L9.76562-15.2344C9.76562-4.05273 16.748 2.92969 27.9297 2.92969ZM30.1758-11.2305C26.3184-11.2305 23.9258-13.623 23.9258-17.4805L23.9258-52.9297C23.9258-56.7871 26.3184-59.1797 30.1758-59.1797L81.9336-59.1797C85.791-59.1797 88.1836-56.7871 88.1836-52.9297L88.1836-17.4805C88.1836-13.623 85.791-11.2305 81.9336-11.2305Z"/>
   <path class="monochrome-1 multicolor-1:tintColor hierarchical-1:secondary SFSymbolsPreviewWireframe" d="M30.4199-19.3359C30.4199-16.748 32.1777-15.0391 34.8633-15.0391L77.2949-15.0391C79.9805-15.0391 81.7383-16.748 81.7383-19.3359L81.7383-24.0234C81.7383-26.6113 79.9805-28.3203 77.2949-28.3203L34.8633-28.3203C32.1777-28.3203 30.4199-26.6113 30.4199-24.0234Z"/>
   <path class="monochrome-2 multicolor-2:tintColor hierarchical-2:primary SFSymbolsPreviewWireframe" d="M100.89 20.249C115.831 20.249 128.185 7.8467 128.185-7.0947C128.185-22.0361 115.831-34.3408 100.89-34.3408C85.9486-34.3408 73.5951-22.0361 73.5951-7.0947C73.5951 7.8467 85.9486 20.249 100.89 20.249Z"/>
   <path class="monochrome-3 multicolor-3:systemBlueColor hierarchical-3:primary SFSymbolsPreviewWireframe" d="M100.89 13.9014C112.365 13.9014 121.837 4.331 121.837-7.0947C121.837-18.5205 112.365-27.9932 100.89-27.9932C89.4154-27.9932 79.9427-18.5205 79.9427-7.0947C79.9427 4.331 89.4154 13.9014 100.89 13.9014Z"/>
   <path class="monochrome-4 multicolor-4:white hierarchical-4:primary SFSymbolsPreviewWireframe" d="M99.181 4.5264C97.9603 4.5264 96.5931 4.2334 95.7142 3.2568L89.6107-3.2373C88.8294-4.1162 88.1458-5.1416 88.1458-6.3623C88.1458-9.3408 90.4408-10.708 92.5892-10.708C93.8099-10.708 94.8841-10.4151 95.6654-9.4873L98.7415-5.7764L106.261-16.0791C107.14-17.2998 108.458-17.9834 109.874-17.9834C112.316-17.9834 114.22-16.0303 114.22-13.6377C114.22-12.9053 114.025-11.9776 113.488-11.294L102.648 2.9639C101.915 3.9404 100.548 4.5264 99.181 4.5264Z"/>
  </g>
  <g id="Regular-S" transform="matrix(1 0 0 1 1394.79 696)">
   <path class="monochrome-0 multicolor-0:tintColor hierarchical-0:secondary SFSymbolsPreviewWireframe" d="M14.502-57.3242L14.502-51.2207L95.6543-51.2207L95.6543-57.3242ZM26.6113 0.390625L84.668 0.390625C94.6777 0.390625 100.342-5.66406 100.342-16.5039L100.342-53.9062C100.342-64.7461 94.6777-70.8008 84.668-70.8008L26.6113-70.8008C15.8203-70.8008 9.76562-64.7461 9.76562-53.9062L9.76562-16.5039C9.76562-5.66406 15.8203 0.390625 26.6113 0.390625ZM26.6113-6.68945C20.3613-6.68945 16.7969-10.2051 16.7969-16.5039L16.7969-53.9062C16.7969-60.2051 20.3613-63.7207 26.6113-63.7207L83.4961-63.7207C89.7949-63.7207 93.3105-60.2051 93.3105-53.9062L93.3105-16.5039C93.3105-10.2051 89.7949-6.68945 83.4961-6.68945Z"/>
   <path class="monochrome-1 multicolor-1:tintColor hierarchical-1:secondary SFSymbolsPreviewWireframe" d="M26.6113-15.8691C26.6113-13.8672 27.9785-12.5488 30.0293-12.5488L80.127-12.5488C82.1777-12.5488 83.5449-13.8672 83.5449-15.8691L83.5449-21.8262C83.5449-23.8281 82.1777-25.1465 80.127-25.1465L30.0293-25.1465C27.9785-25.1465 26.6113-23.8281 26.6113-21.8262Z"/>
   <path class="monochrome-2 multicolor-2:tintColor hierarchical-2:primary SFSymbolsPreviewWireframe" d="M99.099 18.3448C112.917 18.3448 124.49 6.82125 124.49-7.04595C124.49-20.9619 113.015-32.4365 99.099-32.4365C85.1342-32.4365 73.7084-20.9619 73.7084-7.04595C73.7084 6.96775 85.0854 18.3448 99.099 18.3448Z"/>
   <path class="monochrome-3 multicolor-3:systemBlueColor hierarchical-3:primary SFSymbolsPreviewWireframe" d="M99.099 12.6807C109.744 12.6807 118.777 3.69625 118.777-7.04595C118.777-17.8369 109.89-26.7236 99.099-26.7236C88.308-26.7236 79.3725-17.8369 79.3725-7.04595C79.3725 3.79395 88.308 12.6807 99.099 12.6807Z"/>
   <path class="monochrome-4 multicolor-4:white hierarchical-4:primary SFSymbolsPreviewWireframe" d="M96.8041 3.69625C96.1206 3.69625 95.2416 3.45215 94.7534 2.86615L88.1615-4.36035C87.6733-4.84865 87.478-5.62995 87.478-6.21585C87.478-7.68065 88.6497-8.80375 90.0659-8.80375C90.9448-8.80375 91.5795-8.41315 92.019-7.97365L96.7065-2.89555L106.033-15.8838C106.472-16.5674 107.253-17.0556 108.23-17.0556C109.597-17.0556 110.818-15.9326 110.818-14.4677C110.818-14.0283 110.622-13.4424 110.232-12.9541L98.9526 2.76855C98.562 3.35445 97.6831 3.69625 96.8041 3.69625Z"/>
  </g>
  <g id="Ultralight-S" transform="matrix(1 0 0 1 505.702 696)">
   <path class="monochrome-0 multicolor-0:tintColor hierarchical-0:secondary SFSymbolsPreviewWireframe" d="M11.0508-58.4595L11.0508-56.2612L96.9712-56.2612L96.9712-58.4595ZM22.7515-1.65282L85.3037-1.65282C93.27-1.65282 98.2529-6.61767 98.2529-14.6421L98.2529-55.8589C98.2529-63.8833 93.27-68.8482 85.3037-68.8482L22.7515-68.8482C14.7305-68.8482 9.76562-63.8833 9.76562-55.8589L9.76562-14.6421C9.76562-6.61767 14.7305-1.65282 22.7515-1.65282ZM22.8423-3.87405C16.1382-3.87405 11.9834-8.02541 11.9834-14.7329L11.9834-55.7681C11.9834-62.4756 16.1382-66.6269 22.8423-66.6269L85.1763-66.6269C91.8838-66.6269 96.0351-62.4756 96.0351-55.7681L96.0351-14.7329C96.0351-8.02541 91.8838-3.87405 85.1763-3.87405Z"/>
   <path class="monochrome-1 multicolor-1:tintColor hierarchical-1:secondary SFSymbolsPreviewWireframe" d="M24.25-14.0982C24.25-12.0962 25.6172-10.7778 27.668-10.7778L80.3994-10.7778C82.4502-10.7778 83.8174-12.0962 83.8174-14.0982L83.8174-18.7837C83.8174-20.7857 82.4502-22.104 80.3994-22.104L27.668-22.104C25.6172-22.104 24.25-20.7857 24.25-18.7837Z"/>
   <path class="monochrome-2 multicolor-2:tintColor hierarchical-2:primary SFSymbolsPreviewWireframe" d="M97.2163 14.3033C108.9 14.3033 118.565 4.68695 118.565-7.04595C118.565-18.7822 108.953-28.395 97.2163-28.395C85.5219-28.395 75.8671-18.7368 75.8671-7.04595C75.8671 4.69725 85.5185 14.3033 97.2163 14.3033Z"/>
   <path class="monochrome-3 multicolor-3:systemBlueColor hierarchical-3:primary SFSymbolsPreviewWireframe" d="M97.2163 11.273C107.225 11.273 115.486 3.01515 115.486-7.04595C115.486-17.0649 107.281-25.3159 97.2163-25.3159C87.1972-25.3159 78.9428-17.0195 78.9428-7.04595C78.9428 3.02195 87.1972 11.273 97.2163 11.273Z"/>
   <path class="monochrome-4 multicolor-4:white hierarchical-4:primary SFSymbolsPreviewWireframe" d="M94.8304 2.24315C94.374 2.24315 93.9038 2.04445 93.5517 1.64015L87.5048-5.04155C87.1982-5.39355 87.0483-5.81155 87.0483-6.21585C87.0483-7.04495 87.7206-7.66855 88.5463-7.66855C89.1528-7.66855 89.5151-7.32325 89.8183-7.02005L94.7329-1.76025L104.059-14.5669C104.362-14.978 104.826-15.2393 105.348-15.2393C106.125-15.2393 106.801-14.5703 106.801-13.7412C106.801-13.3472 106.651-13.0791 106.442-12.7724L96.0708 1.58785C95.771 1.99215 95.3916 2.24315 94.8304 2.24315Z"/>
  </g>
 </g>
</svg>
